<?xml version="1.0" encoding="utf-8"?>
<!-- Generator: Adobe Illustrator 16.0.0, SVG Export Plug-In . SVG Version: 6.00 Build 0)  -->
<svg version="1.2" baseProfile="tiny" id="Layer_1" xmlns="http://www.w3.org/2000/svg" xmlns:xlink="http://www.w3.org/1999/xlink"
	 x="0px" y="0px" width="593.098px" height="508.5px" viewBox="0 0 593.098 508.5" xml:space="preserve">
<g>
	<path fill="none" d="M91.138,351.864c-0.074-0.06-0.148-0.12-0.223-0.18l0.113,0.103C91.064,351.813,91.102,351.839,91.138,351.864
		z"/>
	<path fill="none" d="M51.352,315.531l0.014,0.013l-0.35-0.344C51.133,315.321,51.245,315.432,51.352,315.531z"/>
	<path fill="none" d="M408.318,407.59c14.286-5.555,26.583-11.841,38.23-18.809C433.816,395.953,421.069,402.227,408.318,407.59z"/>
	<path fill="#FFEB99" d="M552.424,211.46c-4.697-4.21-9.605-10.449-14.42-15.26c-9.741-9.733-19.812-18.798-30.756-28.571
		c-9.18-8.198-23.385-19.003-33.61-26.424C393.83,83.29,298.03,59.96,197.713,98.824c-34.331,13.301-75.912,37.687-103.084,60.783
		l-35.635,31.138c-7,7.513-20.504,20.362-25.735,26.852c-1.414,1.754-1.743,2.154-3.505,3.916
		C24.957,226.309,3.212,253.45,0,258.984l4.174,4.85c15.081-0.033,39.862,44.175,46.841,51.366l0.35,0.344l39.549,36.141
		c0.075,0.06,0.148,0.12,0.223,0.18c64.398,45.919,141.016,77.506,226.03,76.773c39.487-4.935,67.945-12.026,91.15-21.048
		c12.751-5.363,25.498-11.637,38.23-18.809c19.488-11.658,37.168-25.222,59.343-40.447c20.035-19.485,72.692-82.091,83.878-84.668
		c0,0,0,0.001,0,0.001c1.053-1.374,2.099-2.693,3.328-4.055c-1.187-2.86-4.175-5.753-6.219-8.42
		C581.281,243.887,557.268,215.802,552.424,211.46z"/>
	<path d="M505.892,348.334c-22.175,15.226-39.854,28.789-59.343,40.447c-11.647,6.968-23.944,13.254-38.23,18.809
		c-23.205,9.021-51.663,16.113-91.15,21.048c-85.015,0.732-161.632-30.854-226.03-76.773c-0.036-0.025-0.073-0.051-0.11-0.077
		l-0.113-0.103l-39.549-36.141l-0.014-0.013c-0.107-0.1-0.219-0.21-0.336-0.331c-6.979-7.191-31.761-51.399-46.841-51.366
		c-0.562,0.001-1.111,0.057-1.645,0.185c1.031,10.24,33.635,64.329,38.372,73.278c1.776,3.359,11.945,19.409,12.623,21.997
		c2.973,11.354-18.269,29.754-18.936,46.418c19.054,0.994,39.395-20.257,52.031-15.554l46.432,31.559
		c5.463,15.857-9.422,40.168-4.617,56.141c30.238-8.899,28.955-44.402,70.777-32.509c10.553,3.001,23.64,4.662,32.837,9.735
		c4.11,14.824-1.455,30.779,1.863,44.814c12.561-1.058,11.397-5.809,18.703-15.563c14.24-19.016,19.048-33.69,80.248-21.548
		c10.991,15.6,25.423,43.647,37.064,45.713c7.712-10.754,0.869-37.7,3.31-50.908c33.811-7.099,42.719-13.351,54.357-2.357
		c10.414,9.838,26.131,33.559,43.982,36.294c1.936-20.865-11.141-38.97-10.902-59.318l43.885-28.817
		c16.834,5.115,30.158,23.661,48.438,23.866c-3.631-24.623-26.928-38.235-17.263-61.5c5.276-12.7,61.336-90.243,54.036-102.092
		c0,0,0,0,0-0.001C578.584,266.243,525.927,328.849,505.892,348.334z"/>
</g>
</svg>
