<?xml version="1.0" encoding="utf-8"?>
<!-- Generator: Adobe Illustrator 16.0.0, SVG Export Plug-In . SVG Version: 6.00 Build 0)  -->
<svg version="1.2" baseProfile="tiny" id="Layer_1" xmlns="http://www.w3.org/2000/svg" xmlns:xlink="http://www.w3.org/1999/xlink"
	 x="0px" y="0px" width="598.414px" height="508.5px" viewBox="0 0 598.414 508.5" xml:space="preserve">
<g>
	<path fill="none" d="M558.571,216.148c0.008,0.008,0.017,0.018,0.024,0.026C558.588,216.165,558.58,216.157,558.571,216.148z"/>
	<path fill="none" d="M52.969,315.531l0.011,0.01l-0.345-0.339C52.751,315.322,52.863,315.433,52.969,315.531z"/>
	<path fill="none" d="M113.772,145.939c-18.232,12.883-35.564,27.531-51.98,43.774l34.454-30.107
		C101.584,155.069,107.485,150.482,113.772,145.939z"/>
	<path fill="none" d="M92.753,351.863c-0.073-0.06-0.146-0.118-0.219-0.178l0.111,0.102
		C92.681,351.812,92.717,351.838,92.753,351.863z"/>
	<path fill="none" d="M409.936,407.59c14.286-5.555,26.583-11.841,38.23-18.809C435.434,395.953,422.687,402.227,409.936,407.59z"/>
	<path fill="none" d="M508.865,167.629c10.942,9.773,21.015,18.838,30.756,28.571c4.814,4.811,9.723,11.05,14.42,15.26
		c0.57,0.511,1.413,1.36,2.453,2.457c-0.007-0.007-0.014-0.015-0.021-0.022c-37.254-40.892-71.225-69.165-106.721-89.657
		c8.665,5.26,17.172,10.922,25.502,16.967C485.48,148.626,499.686,159.431,508.865,167.629z"/>
	<path fill="none" d="M342.677,83.325c-0.032-0.002-0.064-0.004-0.098-0.007c0.075,0.012,0.149,0.025,0.224,0.038
		C342.761,83.345,342.719,83.335,342.677,83.325z"/>
	<path fill="none" d="M55.743,195.805L55.743,195.805c0.116-0.118,0.237-0.241,0.353-0.358
		C55.978,195.566,55.86,195.685,55.743,195.805z"/>
	<path fill="#EDEDED" d="M558.596,216.174c-0.008-0.008-0.017-0.018-0.024-0.026c-0.674-0.739-1.366-1.483-2.077-2.231
		c-1.04-1.096-1.883-1.946-2.453-2.457c-4.697-4.21-9.605-10.449-14.42-15.26c-9.741-9.733-19.813-18.798-30.756-28.571
		c-9.18-8.198-23.385-19.003-33.61-26.424c-8.33-6.045-16.837-11.707-25.502-16.967c-33.034-19.07-67.392-31.401-106.95-40.882
		c-0.074-0.013-0.148-0.025-0.224-0.038c-87.232-6.838-163.748,16.65-228.807,62.622c-6.287,4.543-12.188,9.13-17.526,13.667
		l-34.454,30.107c-1.911,1.89-3.811,3.799-5.697,5.732c-0.115,0.118-0.237,0.241-0.354,0.359l-39.819,48.67
		c-7.755,7.947-3.729,14.223-14.306,14.509l0,0l4.174,4.849c15.082-0.034,39.867,44.185,46.844,51.369l0.345,0.339l39.554,36.145
		c0.073,0.06,0.146,0.118,0.219,0.178c64.398,45.919,141.016,77.507,226.032,76.774c39.487-4.935,67.945-12.026,91.15-21.048
		c12.751-5.363,25.498-11.637,38.23-18.809c19.488-11.658,37.168-25.222,59.343-40.447c20.035-19.485,72.692-82.091,83.878-84.668
		c0,0,0,0.001,0.001,0.001c0.876-1.144,1.754-2.251,2.731-3.376C582.674,256.338,579.035,238.594,558.596,216.174z M311.893,415.618
		c-90.359,7.116-161.828-60.461-168.912-141.987c-3.388-38.978,7.797-75.69,30.128-105.958c9.14-12.389,16.985-19.923,28.919-29.754
		c22.171-18.264,53.089-30.173,83.847-32.932c23.749-2.13,48.121,1.783,68.411,9.361c21.73,8.116,32.189,16.022,48.948,29.292
		c3.928,3.109,15.606,15.867,18.989,20.11c18.335,22.989,30.517,52.273,33.13,83.637
		C462.886,337.774,393.692,409.175,311.893,415.618z"/>
	<path d="M507.509,348.334c-22.175,15.226-39.854,28.789-59.343,40.447c-11.647,6.968-23.944,13.254-38.23,18.809
		c-23.205,9.021-51.663,16.113-91.15,21.048c-85.016,0.732-161.633-30.855-226.032-76.774c-0.036-0.025-0.073-0.051-0.108-0.076
		l-0.111-0.102L52.98,315.541l-0.011-0.01c-0.106-0.099-0.218-0.209-0.334-0.329c-6.977-7.185-31.762-51.403-46.844-51.369
		c-0.562,0.002-1.111,0.058-1.644,0.186c1.031,10.24,33.635,64.329,38.371,73.278c1.777,3.359,11.946,19.409,12.624,21.997
		c2.973,11.354-18.27,29.754-18.936,46.418c19.054,0.994,39.394-20.257,52.031-15.554l46.432,31.559
		c5.463,15.857-9.422,40.168-4.617,56.141c30.237-8.899,28.955-44.402,70.777-32.509c10.553,3.001,23.639,4.662,32.837,9.735
		c4.11,14.824-1.455,30.779,1.863,44.814c12.561-1.058,11.397-5.809,18.703-15.563c14.24-19.016,19.048-33.69,80.247-21.548
		c10.992,15.6,25.424,43.647,37.065,45.713c7.712-10.754,0.869-37.7,3.309-50.908c33.812-7.099,42.72-13.351,54.358-2.357
		c10.414,9.838,26.131,33.559,43.982,36.294c1.936-20.865-11.141-38.97-10.902-59.318l43.885-28.817
		c16.834,5.115,30.158,23.661,48.438,23.866c-3.631-24.623-26.928-38.235-17.263-61.5c5.276-12.7,61.335-90.241,54.037-102.092
		c-0.001,0-0.001-0.001-0.001-0.001C580.201,266.243,527.544,328.849,507.509,348.334z"/>
	<path d="M539.269,144.459l-29.272-15.238c-8.792-4.575-14.769-13.543-22.465-20.051c-18.87-15.953,19.132-57.24,16.897-83.519
		c-20.605,3.65-41.445,41.275-53.466,53.794c-13.435,13.989-21.022-1.339-60.051-9.905c-2.817-16.621,5.082-50.663-3.82-64.132
		c-13.439,2.735-36.567,36.097-49.256,55.885c-48.459,3.537-69.724-0.288-86.162-24.096C243.241,24.984,238.654,1.195,224.157,0
		h-0.003c-3.83,17.731-1.18,49.908-5.923,68.641c-10.617,6.498-17.907,11.166-30.087,15.067
		c-48.279,15.467-48.685-32.534-83.59-43.41c-5.546,20.188,15.41,57.134,9.104,77.183L60.06,157.787
		C45.473,163.857,21.994,137.302,0,138.768c0.768,21,25.289,43.951,21.858,58.298c-0.783,3.269-12.522,23.616-14.572,27.869
		c-5.466,11.336-4.479,21.13-5.669,34.05h0c10.577-0.286,6.551-6.562,14.306-14.509l39.819-48.67l0.001-0.001
		c0.117-0.12,0.235-0.238,0.353-0.358c1.886-1.934,3.786-3.842,5.697-5.732c16.416-16.243,33.748-30.892,51.98-43.774
		c65.06-45.972,141.575-69.459,228.807-62.622c0.033,0.002,0.065,0.004,0.098,0.007c0.042,0.01,0.084,0.021,0.126,0.031
		c39.559,9.481,73.916,21.812,106.95,40.882c35.496,20.492,69.467,48.765,106.721,89.657c0.007,0.007,0.014,0.015,0.021,0.022
		c0.711,0.749,1.403,1.493,2.077,2.231c0.009,0.009,0.017,0.017,0.024,0.026c20.439,22.42,24.078,40.164,35.523,44.117
		c0.425,0.147,0.858,0.279,1.307,0.388c8.428-15.014-10.847-61.273-16.938-77.222c-11.156-29.216,15.734-46.638,19.926-77.716
		C577.314,106.206,556.243,153.292,539.269,144.459z"/>
	<path fill="#00CCFF" d="M422.224,163.75c-3.383-4.243-15.062-17.001-18.989-20.11c-16.759-13.27-27.218-21.176-48.948-29.292
		c-20.29-7.578-44.662-11.491-68.411-9.361c-30.758,2.759-61.676,14.668-83.847,32.932c-11.934,9.831-19.779,17.365-28.919,29.754
		c-22.331,30.268-33.516,66.98-30.128,105.958c7.084,81.526,78.553,149.104,168.912,141.987
		c81.8-6.443,150.993-77.844,143.461-168.231C452.74,216.023,440.559,186.739,422.224,163.75z M314.046,381.367
		c-71.713,8.715-129-44.175-136.137-106.705c-7.605-66.627,38.899-127.066,106.764-135.466
		c71.544-8.856,128.419,44.62,135.655,106.656C428.714,317.757,375.836,373.858,314.046,381.367z"/>
	<path fill="#99FFFF" d="M284.673,139.196c-67.865,8.4-114.369,68.839-106.764,135.466c7.137,62.53,64.424,115.42,136.137,106.705
		c61.79-7.509,114.668-63.61,106.282-135.516C413.092,183.815,356.217,130.34,284.673,139.196z M329.533,329.314
		c-33.144,14.188-71.11,3.439-91.364-24.455c-7.964-10.968-16.686-29.971-14.517-48.301c-0.081-0.143-0.175-0.303-0.205-0.226
		c-0.004,0.008-7.327-7.638-9.208-18.872c-4.066-24.282,18.539-46.859,43.851-40.41c9.174-8.532,34.021-13.477,49.767-11.715
		c21.434,2.397,38.16,12.673,51.124,28.378C388.073,248.954,377.072,308.967,329.533,329.314z"/>
	<path d="M307.857,185.336c-15.746-1.762-40.593,3.183-49.767,11.715c0.164,0.042,0.326,0.071,0.489,0.115
		c20.453,4.493,35.444,29.88,22.076,52.889c-4.383,7.545-13.275,15.174-25.116,17.02c-19.092,2.977-27.206-7.621-31.805-10.376
		c-0.022-0.036-0.051-0.087-0.082-0.141c-2.169,18.33,6.553,37.333,14.517,48.301c20.254,27.895,58.22,38.643,91.364,24.455
		c47.539-20.348,58.54-80.361,29.448-115.601C346.018,198.009,329.291,187.733,307.857,185.336z"/>
	<path fill="#FFFFFF" d="M255.54,267.075c11.841-1.846,20.733-9.475,25.116-17.02c13.368-23.009-1.623-48.396-22.076-52.889
		c-0.164-0.044-0.326-0.073-0.489-0.115c-25.312-6.45-47.917,16.127-43.851,40.41c1.881,11.234,9.204,18.88,9.208,18.872
		c0.03-0.077,0.124,0.083,0.205,0.226c0.031,0.054,0.06,0.104,0.082,0.141C228.333,259.454,236.448,270.052,255.54,267.075z"/>
</g>
</svg>
