<?xml version="1.0" encoding="utf-8"?>
<!-- Generator: Adobe Illustrator 16.0.0, SVG Export Plug-In . SVG Version: 6.00 Build 0)  -->
<svg version="1.2" baseProfile="tiny" id="Layer_1" xmlns="http://www.w3.org/2000/svg" xmlns:xlink="http://www.w3.org/1999/xlink"
	 x="0px" y="0px" width="135.716px" height="135.115px" viewBox="0 0 135.716 135.115" xml:space="preserve">
<g>
	<path d="M50.649,134.865V94.424c-0.002-0.034-0.262-4.285,2.473-7.263c1.731-1.884,4.266-2.866,7.536-2.919
		c10.448-0.169,13.27-0.171,13.297-0.171c0-0.001,0.288-0.028,0.77-0.028c2.291,0,9.778,0.675,9.923,9.355
		c0.162,9.784,0.486,38.978,0.511,41.127l26.297,0.169c0.056-0.011,7.54-1.286,7.374-10.27c-0.169-9.1,0-48.187,0.002-48.581
		l0.001-0.122l10.346-0.172c-0.008-0.001,1.601-0.348,3.175-1.431c2.099-1.445,3.146-3.444,3.111-5.942
		c0.081-5.568-1.821-7.15-5.612-10.303l-0.411-0.341c-4.467-3.723-10.443-8.966-10.781-11.5c-0.337-2.521-0.343-29.375-0.343-30.843
		c-0.965-2.344-2.463-4.295-4.334-5.645c-2.1-1.515-4.594-2.283-7.412-2.283c-2.872,0-5.926,0.834-8.378,2.289
		c-1.474,0.874-4.264,3.106-4.341,4.258l-0.529,7.952l-0.196-0.203c-5.98-6.191-11.942-12.039-17.722-17.38
		c-1.483-1.373-4.246-3.929-7.883-3.929c-3.371,0.003-5.938,2.19-6.781,2.909c-11.445,9.75-22.037,22.358-22.143,22.484
		c-0.915,0.916-2.559,2.566-4.652,4.666c-9.6,9.633-27.469,27.564-29.282,29.098c-2.499,2.115-4.944,5.657-4.312,9.257
		c0.408,2.919,2.827,7.231,6.727,7.231c0.075,0,0.149-0.002,0.225-0.005c1.143-0.05,2.542-0.075,4.159-0.075
		c2.824,0,5.371,0.078,5.396,0.079l0.114,0.004l0.007,0.113c0.009,0.133,0.851,13.367,0.682,19.438
		c-0.171,6.148-0.511,28.778-0.511,30.336c0,0.091,0.09,9.079,7.886,9.079H50.649z"/>
	<path fill="#FFFFFF" d="M53.306,87.33c1.682-1.832,4.157-2.786,7.355-2.838c10.445-0.169,13.266-0.171,13.305-0.172
		c0.003,0,0.29-0.027,0.758-0.027c2.233,0,9.532,0.657,9.673,9.109c0.168,10.109,0.509,40.938,0.512,41.248l0.001,0.123
		l26.563,0.169c0.077-0.012,7.775-1.316,7.605-10.521c-0.164-8.844-0.009-46.021,0.001-48.453l10.125-0.171
		c0.067-0.014,1.667-0.358,3.282-1.468c1.496-1.027,3.271-2.931,3.227-6.152c0.083-5.684-1.851-7.292-5.703-10.495l-0.41-0.342
		c-4.435-3.696-10.367-8.893-10.693-11.34c-0.337-2.52-0.341-30.552-0.341-30.834l-0.01-0.047c-0.981-2.397-2.513-4.394-4.428-5.775
		c-2.144-1.546-4.687-2.33-7.559-2.33c-2.915,0-6.016,0.847-8.505,2.324c-1.465,0.869-4.375,3.141-4.464,4.456l-0.492,7.389
		c-5.917-6.12-11.816-11.901-17.535-17.188C74.067,2.6,71.262,0.005,67.526,0h-0.018c-3.454,0.006-6.07,2.235-6.93,2.968
		c-11.461,9.764-22.067,22.388-22.165,22.506c-0.908,0.908-2.552,2.558-4.645,4.658C24.171,39.763,6.307,57.689,4.502,59.216
		c-2.552,2.159-5.047,5.786-4.397,9.487c0.241,1.723,1.063,3.571,2.199,4.945c0.942,1.14,2.536,2.497,4.775,2.497
		c0.078,0,0.157-0.002,0.236-0.005c1.139-0.05,2.535-0.075,4.148-0.075c2.482,0,4.75,0.061,5.274,0.076
		c0.082,1.311,0.834,13.541,0.674,19.301c-0.171,6.151-0.511,28.786-0.511,30.344c0,0.094,0.093,9.329,8.136,9.329h25.862l0-40.7
		C50.896,94.374,50.643,90.229,53.306,87.33z M17.151,125.786c0-1.558,0.339-24.188,0.511-30.336
		c0.168-6.071-0.673-19.306-0.682-19.438l-0.007-0.113l-0.114-0.004c-0.025-0.001-2.572-0.079-5.396-0.079
		c-1.617,0-3.016,0.025-4.159,0.075c-0.076,0.003-0.15,0.005-0.225,0.005c-3.9,0-6.319-4.312-6.727-7.231
		c-0.633-3.601,1.812-7.143,4.312-9.257c1.813-1.534,19.682-19.465,29.282-29.098c2.093-2.1,3.737-3.75,4.652-4.666
		c0.106-0.126,10.698-12.733,22.143-22.484c0.843-0.719,3.41-2.906,6.781-2.909c3.637,0,6.399,2.556,7.883,3.929
		c5.779,5.341,11.741,11.189,17.722,17.38l0.196,0.203l0.529-7.952c0.077-1.151,2.867-3.384,4.341-4.258
		c2.452-1.455,5.506-2.289,8.378-2.289c2.818,0,5.312,0.768,7.412,2.283c1.871,1.349,3.369,3.301,4.334,5.645
		c0,1.468,0.006,28.322,0.343,30.843c0.338,2.534,6.314,7.776,10.781,11.5l0.411,0.341c3.791,3.152,5.693,4.734,5.612,10.303
		c0.034,2.498-1.013,4.497-3.111,5.942c-1.574,1.083-3.183,1.43-3.175,1.431l-10.346,0.172l-0.001,0.122
		c-0.002,0.395-0.171,39.481-0.002,48.581c0.166,8.983-7.318,10.259-7.374,10.27l-26.297-0.169
		c-0.024-2.149-0.349-31.343-0.511-41.127c-0.145-8.681-7.632-9.355-9.923-9.355c-0.481,0-0.77,0.027-0.77,0.028
		c-0.027,0-2.85,0.002-13.297,0.171c-3.27,0.053-5.805,1.035-7.536,2.919c-2.734,2.978-2.475,7.229-2.473,7.263v40.441H25.037
		C17.241,134.865,17.151,125.877,17.151,125.786z"/>
</g>
</svg>
