<?xml version="1.0" encoding="utf-8"?>
<!-- Generator: Adobe Illustrator 16.0.0, SVG Export Plug-In . SVG Version: 6.00 Build 0)  -->
<svg version="1.2" baseProfile="tiny" id="Layer_1" xmlns="http://www.w3.org/2000/svg" xmlns:xlink="http://www.w3.org/1999/xlink"
	 x="0px" y="0px" width="307.981px" height="427.089px" viewBox="0 0 307.981 427.089" xml:space="preserve">
<path fill="#00CCFE" d="M104.254,85.009c-19.78,27.4-27.093,31.999-49.275,63C25.012,189.892,9.095,211.107,3.254,243
	c-2.452,13.387-7.888,45.234,5,81c18.495,51.323,71.289,101.169,141.326,103.034c75.008,1.999,131.936-52.041,150.674-106.034
	c12.831-36.972,6.343-69.85,4-81c-8.619-41.018-30.324-63.249-59.103-96.901c-14.438-16.886-30.657-36.647-47.897-63.099
	c-21.625-33.18-35.339-62.287-43-80l0,0C144.986,19.839,129.126,50.556,104.254,85.009z"/>
</svg>
